<?xml version="1.0" encoding="utf-8"?>
<!-- Generator: Adobe Illustrator 19.2.0, SVG Export Plug-In . SVG Version: 6.00 Build 0)  -->
<svg version="1.1" id="Layer_1" xmlns="http://www.w3.org/2000/svg" xmlns:xlink="http://www.w3.org/1999/xlink" x="0px" y="0px"
	 viewBox="0 0 200 200" style="enable-background:new 0 0 200 200;" xml:space="preserve">
<polygon points="46.8,69.2 19.1,54.5 20.1,52.7 46.3,66.7 99.2,6.5 100.8,7.8 "/>
<rect x="165.9" y="65.7" transform="matrix(0.9458 -0.3247 0.3247 0.9458 -25.7556 60.001)" width="2" height="83"/>
<rect x="98.9" y="160.8" transform="matrix(1 -7.515719e-03 7.515719e-03 1 -1.326 0.7557)" width="2" height="32"/>
<rect x="58.7" y="112.9" transform="matrix(0.1766 -0.9843 0.9843 0.1766 -102.0353 185.2231)" width="2" height="81.4"/>
<path d="M100,194l-0.5-0.3L18.6,147V53l0.5-0.3L100,6l81.4,47v94l-0.5,0.3L100,194z M20.6,145.8l79.4,45.8l79.4-45.8V54.2L100,8.3
	L20.6,54.2V145.8z"/>
<path d="M100,162.5L44.8,66.9h110.4L100,162.5z M48.3,68.9l51.7,89.6l51.7-89.6H48.3z"/>
<polygon points="153.2,69.2 99.2,7.8 100.8,6.5 153.7,66.7 179.9,52.7 180.9,54.5 "/>
<rect x="-8.4" y="106.2" transform="matrix(0.3243 -0.946 0.946 0.3243 -79.0266 103.721)" width="83" height="2"/>
<rect x="99.4" y="152.5" transform="matrix(0.985 -0.1728 0.1728 0.985 -24.4069 26.5305)" width="81.6" height="2"/>
</svg>
