<?xml version="1.0" encoding="utf-8"?>
<!-- Generator: Adobe Illustrator 19.2.1, SVG Export Plug-In . SVG Version: 6.00 Build 0)  -->
<!DOCTYPE svg PUBLIC "-//W3C//DTD SVG 1.1//EN" "http://www.w3.org/Graphics/SVG/1.1/DTD/svg11.dtd">
<svg version="1.1" id="Layer_1" xmlns="http://www.w3.org/2000/svg" xmlns:xlink="http://www.w3.org/1999/xlink" x="0px" y="0px"
	 viewBox="0 0 200 200" style="enable-background:new 0 0 200 200;" xml:space="preserve">
<path d="M100-3.9L13.5,46L10,48.1V152l86.4,49.9l3.5,2.1l86.6-50l3.4-2.1V48L100-3.9z M141.3,74.9L100,146.5L58.7,74.9H141.3z
	 M62.1,60.9L100,17.8l37.9,43.1H62.1z M86.6,151.3L28.9,141l19.3-56.2L86.6,151.3z M151.8,84.8l19.3,56.2l-57.6,10.1L151.8,84.8z
	 M155.1,59.2l-26.8-30.5l40.4,23.3L155.1,59.2z M44.9,59.2l-13.5-7.2l40.4-23.3L44.9,59.2z M38,71.3L24.1,112V63.9L38,71.3z
	 M92.8,166.6l0.1,16.9L50.5,159L92.8,166.6z M106.8,166.5l42.8-7.5L107,183.6L106.8,166.5z M162,71.3l13.9-7.4v48L162,71.3z"/>
</svg>
