<?xml version="1.0" encoding="utf-8"?>
<!-- Generator: Adobe Illustrator 19.2.0, SVG Export Plug-In . SVG Version: 6.00 Build 0)  -->
<svg version="1.1" id="Layer_1" xmlns="http://www.w3.org/2000/svg" xmlns:xlink="http://www.w3.org/1999/xlink" x="0px" y="0px"
	 viewBox="0 0 200 200" style="enable-background:new 0 0 200 200;" xml:space="preserve">
<g>
	<path d="M192.4,157.7c0,14.3-14.2,25.4-30.3,23.2c4.1,3.8,14,6.4,19.3,4c-3,5.5-17.6,13.2-31.3,9.6c-12.9-3.4-18.5-15.7-18.8-23.5
		c-6.1,6.1-4.4,16-0.1,19.9c-5-1.3-12.6-6.5-13.9-15.9c-1.1-8,3.4-17.2-5-24.6c-5-4.4-12.6-10.7-17.6-14.6
		c-10.3-8.1-6.4-14-8.7-18.3c-1.8-3.3-6.1-5.2-8.7-8.2c-2.6-3-2.5-7.5-1.1-10.1c-0.4,3.6,2.1,6.3,5.6,7.5c3.8,1.3,7,0.2,10.3,2.1
		c3.9,2.3,2.1,8.4,4.9,10.5c2.5,1.9,8.9-0.6,14.3,3.7c5.4,4.4,17.6,14.5,22.9,18.9c9.5,7.8,19.2-1.1,16-10
		c9.6,5.7,10.7,21.6,2.7,27.1c7.5,1.7,21.1-1.7,21.1-12.6c0-6.7-6.2-11.4-10.5-12.1C178.9,132.9,192.4,143.7,192.4,157.7"/>
	<path d="M30.2,74.7c0.9-3.7-6.4-10-9.1-11.2C31.1,63.1,36.2,65,36.2,65c-2.6-3.9-3.5-9.8-2-14.5c5.5,13.1,25.1,15.3,29.9,26.2
		c-0.7-4.7-5.1-10-10.3-13.1c-2.8-7.2-0.7-20.4,2.7-24c-1.2,19,25.9,29.8,31.5,43.6c-3.3-11.8-15.9-19.3-21.9-26.4
		c-2-4.7-0.4-12.6,1.7-15.4c-0.6,12.7,13.1,22.6,20.4,29.7C96.8,79.6,99.3,87,98.1,93c1.9,0.5,4.5,2.3,4.1,5.4
		c2.8-0.6,5.6-3.8,6.2-5.7c1.4,9.4-4.2,19.4-10.4,22.4c0,0,1.7-4.5-1.2-7.9c-2.8-3.4-10.7-3.5-13.4-3.2c0,0,3.3-4.9,2-7.4
		c-1.6-3.1-17.1-1.7-24.1,0.8c2.4-0.3,8,0.4,9.9,1.2c-1.1,1.6-3.9,8.5-1.9,10.5c1.9,1.9,4.4-1.4,4.4-1.4s-2.4,7.5-0.7,9.2
		c1.7,1.7,5.5,0.5,5.5,0.5c-2.3,5.8-11.3,9.9-17.6,9.9c2.2-0.7,6-4.7,6.5-7.1c-1.7,0.8-6,1.3-7.6,1c2-0.8,6.1-6.1,4.8-12
		c-1.8-8.6-13.9-9.7-19.9-5.5c1.9-5.8,7.8-11.2,12.4-13c-2.7-0.9-5.8-1.7-9.2-2.3c3.8-3.2,13.5-5.7,18.4-5.4
		c-7.5-1.9-21.3,0.5-27.5,7.9c2,0,7.2,1,9.2,1.6c-8.6,1.6-20.4,9.6-23.9,13.4c0.9-5,2.3-9.2,1.1-12.2c-1.7-4.2-6.8-6-17-3.9
		C15.1,82.7,29.3,78.4,30.2,74.7 M89.5,92.9l-0.9-3.1c-0.1-0.3-2.5-7.8-10.5-10.7l-4.4-1.6L75,82c1.1,3.8,3.1,10.9,11.3,10.9H89.5z"
		/>
	<path d="M159,84.1c-21.6,1-40,19.3-49.6,32.2c1.7,0.6,3.4,1.4,5.1,2.7c2,1.6,4.9,4,8.1,6.6c2.6-5.6,8.3-17.1,17.2-27.2
		c8.1-9.2,22.1-10.1,29.5-4.5c4.7-4.3,21.1-8.3,29.7-5.9c-5.2-5.7-16.4-13.4-28.7-13.4c-10.2,0-15.9,5-17.4,2.7
		c-1.9-2.9,6.9-7.1,6.9-7.1c-12,0.5-20.7,14.6-24.4,12.9c-2.2-1.1,3.2-7.9,3.2-7.9c-11,6.4-20.2,19.9-22.1,28.1
		C126.6,91.1,146.3,82.2,159,84.1"/>
	<path d="M93.5,141.3c-5.5,9.4-17.1,21.5-28.9,21.5c-21.8,0-32.7-30.7-8.4-55.9c-1.4-0.4-2.7-0.5-3.2-0.5c-2,0-4.1,0.5-5.4,1.4
		L36.8,117l3-15c0.2-0.5,0.4-1,0.6-1.5c-5.4,2.7-10.6,6.5-12.6,8.7l-9.7,10.6l1-14.9l0.7-3.3c0.5-2.3,1.1-5.2,0.7-6.2
		c-0.1-0.3-0.4-0.5-0.6-0.7C15.4,98.1,3.1,109,1.7,125c0,0,2.4-3.4,4.5-4.2c1.4-0.5,2.6,0.2,1.3,4.2c-0.5,1.6-12.4,33.8,11,56.1
		c0,0-2.6-6.5-1-8.5c0.8-1,1.7-1,3.1,0.7c1,1.3,2,2.6,3.2,3.9v0l0,0c1.9,2.2,4.1,4.3,6.4,6.1c7,4.9,16.5,8.8,27.4,8.8
		c28.9,0,44.2-19.8,52.7-36.5c-0.4-0.5-0.7-1-1.2-1.4C104.6,150.4,98.3,145.1,93.5,141.3"/>
	<path d="M28.6,58.5c-0.4-3.2-0.2-6.6,0.8-9.6l4.2-13.1l5.3,12.7c1.5,3.7,4.8,6.4,8.6,8.9c-0.3-6.1,0.8-12.9,2.9-17.6
		C50,30,56.8,22.6,64.9,22.6c13.9,0,17.6,16.8,11.2,28.9c3,4.5,7.6,8.7,11.6,12.4c1.4,1.3,2.8,2.5,4,3.7c0.4,0.4,0.6,0.7,1,1.1
		c6.1-8.2,10.5-19.6,10.5-28.3c0-17.9-11.6-34.5-35.8-35.8C52,3.8,41.6,8.5,33.9,16.4c-3.5,3.6-11.3,12.6-9.8,28.9
		C24.7,51.4,26.8,55.7,28.6,58.5"/>
</g>
</svg>
